<svg version="1.2" xmlns="http://www.w3.org/2000/svg" viewBox="0 0 128 128" width="128" height="128">
	<style>
		.s0 { fill: none;stroke: #000;stroke-width: 10 } 
		.s1 { fill: #f8e7ac } 
		.s2 { fill: none;stroke: #000;stroke-width: 3 } 
		.s3 { fill: #000 } 
		.s4 { fill: #fff }
	</style>
	<path class="s0" d="m25 17.3c0-1.7 1.3-3 3-3h72c1.7 0 3 1.3 3 3v94.9c0 1.7-1.3 3-3 3h-72c-1.7 0-3-1.3-3-3z"/>
	<path class="s1" d="m26 14h76v100h-76z"/>
	<path fill-rule="evenodd" class="s2" d="m40 5.5h2c0.8 0 1.5 0.7 1.5 1.5v9c0 0.8-0.7 1.5-1.5 1.5h-2c-0.8 0-1.5-0.7-1.5-1.5v-9c0-0.8 0.7-1.5 1.5-1.5zm45 0h2c0.8 0 1.5 0.7 1.5 1.5v9c0 0.8-0.7 1.5-1.5 1.5h-2c-0.8 0-1.5-0.7-1.5-1.5v-9c0-0.8 0.7-1.5 1.5-1.5zm-22 0h2c0.8 0 1.5 0.7 1.5 1.5v9c0 0.8-0.7 1.5-1.5 1.5h-2c-0.8 0-1.5-0.7-1.5-1.5v-9c0-0.8 0.7-1.5 1.5-1.5z"/>
	<path class="s3" d="m33 38c0-1.1 0.9-2 2-2h34c1.1 0 2 0.9 2 2 0 1.1-0.9 2-2 2h-34c-1.1 0-2-0.9-2-2zm42 0c0-1.1 0.9-2 2-2h11c1.1 0 2 0.9 2 2 0 1.1-0.9 2-2 2h-11c-1.1 0-2-0.9-2-2zm-42 10c0-1.1 0.9-2 2-2h11c1.1 0 2 0.9 2 2 0 1.1-0.9 2-2 2h-11c-1.1 0-2-0.9-2-2zm42 11c0-1.1 0.9-2 2-2h11c1.1 0 2 0.9 2 2 0 1.1-0.9 2-2 2h-11c-1.1 0-2-0.9-2-2zm-42 11c0-1.1 0.9-2 2-2h11c1.1 0 2 0.9 2 2 0 1.1-0.9 2-2 2h-11c-1.1 0-2-0.9-2-2zm42 11c0-1.1 0.9-2 2-2h11c1.1 0 2 0.9 2 2 0 1.1-0.9 2-2 2h-11c-1.1 0-2-0.9-2-2zm-42 10c0-1.1 0.9-2 2-2h11c1.1 0 2 0.9 2 2 0 1.1-0.9 2-2 2h-11c-1.1 0-2-0.9-2-2zm19-21c0-1.1 0.9-2 2-2h34c1.1 0 2 0.9 2 2 0 1.1-0.9 2-2 2h-34c-1.1 0-2-0.9-2-2zm-19-11c0-1.1 0.9-2 2-2h34c1.1 0 2 0.9 2 2 0 1.1-0.9 2-2 2h-34c-1.1 0-2-0.9-2-2zm19-11c0-1.1 0.9-2 2-2h34c1.1 0 2 0.9 2 2 0 1.1-0.9 2-2 2h-34c-1.1 0-2-0.9-2-2zm-19 33c0-1.1 0.9-2 2-2h34c1.1 0 2 0.9 2 2 0 1.1-0.9 2-2 2h-34c-1.1 0-2-0.9-2-2z"/>
	<path class="s4" d="m40 7h2v9h-2zm45 0h2v9h-2zm-22 0h2v9h-2z"/>
</svg>
